<?xml version="1.0" encoding="UTF-8"?>
<svg version="1.1" xmlns="http://www.w3.org/2000/svg" width="237" height="231">
<path d="M0 0 C78.21 0 156.42 0 237 0 C237 76.23 237 152.46 237 231 C158.79 231 80.58 231 0 231 C0 154.77 0 78.54 0 0 Z " fill="#F6FAFB" transform="translate(0,0)"/>
<path d="M0 0 C0.82443604 0.00491455 1.64887207 0.0098291 2.49829102 0.01489258 C23.11318007 0.4047581 42.37028904 9.07456639 57.0546875 23.42578125 C72.41705674 39.50622158 79.2636152 59.43506506 79.1784668 81.3918457 C78.73029491 98.46701593 71.97295605 115.36296321 60.8125 128.3125 C60.25433594 129.0240625 59.69617188 129.735625 59.12109375 130.46875 C47.19551859 145.0084909 28.32487154 154.12554626 9.8125 156.3125 C-2.46185132 157.15121857 -13.48460429 156.06159229 -25.1875 152.3125 C-26.10917969 152.02375 -27.03085938 151.735 -27.98046875 151.4375 C-47.97491945 144.31705969 -62.18982969 128.20300617 -71.0625 109.5625 C-79.18130651 90.52529852 -79.91618827 68.81247964 -72.45605469 49.41015625 C-64.69103637 30.93038939 -50.00378232 14.35540175 -31.29296875 6.51904297 C-21.10795832 2.64353424 -10.92352074 -0.07824384 0 0 Z " fill="#FBFCFD" transform="translate(116.1875,37.6875)"/>
<path d="M0 0 C78.21 0 156.42 0 237 0 C237 76.23 237 152.46 237 231 C158.79 231 80.58 231 0 231 C0 154.77 0 78.54 0 0 Z M86 11 C85.31260742 11.21430664 84.62521484 11.42861328 83.91699219 11.64941406 C69.69936322 16.23294813 57.30466673 23.19264012 46 33 C45.18015625 33.67546875 44.3603125 34.3509375 43.515625 35.046875 C23.33755748 52.21703183 11.00198551 77.88794277 8 104 C5.66039991 134.61472085 14.28374167 163.44460226 34 187 C34.89332031 188.12148438 34.89332031 188.12148438 35.8046875 189.265625 C51.65437955 208.52793017 75.09100063 219.23357569 99 224 C100.18203003 224.26151855 100.18203003 224.26151855 101.38793945 224.52832031 C126.90651869 229.13640472 155.46271632 221.913604 176.8996582 207.67529297 C201.50380605 190.58858785 219.07719822 166.17330439 224.45703125 136.4375 C224.63621094 135.303125 224.81539062 134.16875 225 133 C225.18304688 131.91074219 225.36609375 130.82148438 225.5546875 129.69921875 C229.10134349 100.23708519 221.35827709 72.79045617 203.5 49.25 C202.34252487 47.8258136 201.17591334 46.40900084 200 45 C199.14728516 43.92878906 199.14728516 43.92878906 198.27734375 42.8359375 C185.33342504 27.28124962 167.11783936 16.96032029 148 11 C147.32549805 10.78827148 146.65099609 10.57654297 145.95605469 10.35839844 C126.66018347 4.57971085 105.17610917 4.98055245 86 11 Z " fill="#FDFEFE" transform="translate(0,0)"/>
<path d="M0 0 C1.010625 0.33 2.02125 0.66 3.0625 1 C3.0625 2.32 3.0625 3.64 3.0625 5 C4.3825 5.66 5.7025 6.32 7.0625 7 C7.0625 7.99 7.0625 8.98 7.0625 10 C5.125 9.6875 5.125 9.6875 3.0625 9 C2.5675 7.515 2.5675 7.515 2.0625 6 C1.4025 6.66 0.7425 7.32 0.0625 8 C2.3725 9.98 4.6825 11.96 7.0625 14 C6.7325 14.99 6.4025 15.98 6.0625 17 C4 17.6875 4 17.6875 2.0625 18 C1.7325 19.98 1.4025 21.96 1.0625 24 C0.0725 24 -0.9175 24 -1.9375 24 C-2.4325 25.485 -2.4325 25.485 -2.9375 27 C-2.9375 25.68 -2.9375 24.36 -2.9375 23 C-4.5875 23 -6.2375 23 -7.9375 23 C-8.2675 23.66 -8.5975 24.32 -8.9375 25 C-7.9475 24.67 -6.9575 24.34 -5.9375 24 C-6.2675 24.99 -6.5975 25.98 -6.9375 27 C-8.5875 26.67 -10.2375 26.34 -11.9375 26 C-10.9375 24 -9.9375 22 -8.9375 20 C-10.2575 20.99 -11.5775 21.98 -12.9375 23 C-13.07190778 25.42919865 -13.07190778 25.42919865 -11.9375 28 C-8.84709651 29.73877647 -5.50373085 31 -1.9375 31 C-2.53814045 34.69624892 -3.59924137 37.64737565 -5.25 41 C-15.13450034 62.17288623 -15.2031032 83.34140224 -7.875 105.1640625 C0.15782846 126.30602075 15.45763796 142.12778207 35.88183594 151.43774414 C56.09005433 160.24957404 78.20037542 160.19394964 98.8125 152.75 C120.72650869 143.67559591 136.34036766 128.14897093 145.6015625 106.3828125 C151.33720831 91.05421522 153.51434098 74.1059814 149.5078125 58.0234375 C148.83588596 54.97029761 148.92715008 52.1130482 149.0625 49 C149.7225 48.67 150.3825 48.34 151.0625 48 C151.7225 48.33 152.3825 48.66 153.0625 49 C154.76952735 49.06996014 156.47918003 49.08440154 158.1875 49.0625 C159.09757813 49.05347656 160.00765625 49.04445312 160.9453125 49.03515625 C161.64398438 49.02355469 162.34265625 49.01195312 163.0625 49 C163.3925 46.69 163.7225 44.38 164.0625 42 C167.7273917 43.58481803 168.94138911 44.75777821 170.75 48.375 C178.78217002 73.65808062 173.81868108 101.67301827 162.24243164 124.96850586 C158.36927859 132.40896149 153.61594819 138.70119298 148.0625 145 C147.59714844 145.6084375 147.13179687 146.216875 146.65234375 146.84375 C131.62282988 166.33156004 104.87716071 177.06449471 81.265625 180.5625 C53.0491744 183.90198258 25.99682464 175.67898782 3.765625 158.203125 C2.87359375 157.47609375 1.9815625 156.7490625 1.0625 156 C0.27359375 155.37609375 -0.5153125 154.7521875 -1.328125 154.109375 C-21.36473728 137.4355508 -32.55922278 111.35347853 -35.9375 86 C-37.14840402 57.19174856 -30.27207827 29.99457159 -10.9375 8 C-10.34066406 7.20335937 -9.74382813 6.40671875 -9.12890625 5.5859375 C-4.81948024 0 -4.81948024 0 0 0 Z " fill="#F7FAFB" transform="translate(47.9375,40)"/>
<path d="M0 0 C15.84 0 31.68 0 48 0 C48 4.62 48 9.24 48 14 C42.39 14 36.78 14 31 14 C31 22.58 31 31.16 31 40 C37.44230845 39.94891111 43.88221726 39.8859195 50.32373047 39.79248047 C52.51375553 39.7642994 54.70388177 39.74307066 56.89404297 39.72900391 C60.04707527 39.70753523 63.19889485 39.66086325 66.3515625 39.609375 C67.32678864 39.60814636 68.30201477 39.60691772 69.30679321 39.60565186 C75.15554073 39.48036223 78.53731719 38.88380343 83 35 C85.32277854 31.09350882 85.47123693 27.47675079 85 23 C83.39060293 19.95364126 82.01511232 17.76133424 79.25 15.6875 C75.86708049 14.65383015 72.51884343 14.35188434 69 14 C69 9.38 69 4.76 69 0 C77.16904194 -0.52703496 83.68458628 0.69395423 90.3046875 5.765625 C96.67994282 11.69718123 99.56975022 18.51431527 100.25 27.1875 C99.6773163 35.92092647 96.5281456 41.16018916 90.83984375 47.73828125 C83.55689129 53.53859689 75.80206131 54.58217753 66.7421875 54.390625 C65.71312286 54.38496521 64.68405823 54.37930542 63.62380981 54.37347412 C60.37371026 54.35128703 57.12475989 54.30112415 53.875 54.25 C51.65626605 54.22991216 49.43751462 54.21166542 47.21875 54.1953125 C41.81171337 54.15490116 36.40712553 54.07657613 31 54 C31 62.91 31 71.82 31 81 C36.28 81 41.56 81 47 81 C47 85.29 47 89.58 47 94 C31.82 94 16.64 94 1 94 C1 89.71 1 85.42 1 81 C6.28 81 11.56 81 17 81 C17 58.89 17 36.78 17 14 C11.39 14 5.78 14 0 14 C0 9.38 0 4.76 0 0 Z " fill="#0F70B7" transform="translate(70,76)"/>
<path d="M0 0 C23.19399925 17.88982351 37.44915101 41.41014337 43 70 C43.19335938 70.94101563 43.38671875 71.88203125 43.5859375 72.8515625 C46.25963612 93.18176146 43.19463383 113.33498202 35 132 C34.4740625 133.20527344 33.948125 134.41054687 33.40625 135.65234375 C29.30557219 144.40496974 24.13454234 151.61709293 18 159 C17.36449219 159.80050781 16.72898438 160.60101563 16.07421875 161.42578125 C3.26233243 176.87137439 -15.06559491 187.09686855 -34 193 C-35.01175293 193.31759277 -35.01175293 193.31759277 -36.04394531 193.64160156 C-55.33981653 199.42028915 -76.82389083 199.01944755 -96 193 C-96.68739258 192.78569336 -97.37478516 192.57138672 -98.08300781 192.35058594 C-112.32454592 187.75934395 -124.64645249 180.78274146 -136 171 C-136.68449219 170.44828125 -137.36898437 169.8965625 -138.07421875 169.328125 C-157.84501401 153.01430573 -170.47392718 126.91478547 -173.71484375 101.6796875 C-176.05511388 71.48058531 -169.77711604 42.81818727 -149.921875 19.23046875 C-149.28765625 18.49441406 -148.6534375 17.75835937 -148 17 C-147.17242187 15.97326172 -147.17242187 15.97326172 -146.328125 14.92578125 C-111.09067455 -27.77865274 -43.14583015 -32.82151463 0 0 Z M-133 8 C-133.77988281 8.61359375 -134.55976563 9.2271875 -135.36328125 9.859375 C-154.3419542 25.63560758 -166.99357302 50.65367447 -169.63671875 75.078125 C-170.71957921 88.06865099 -170.31098365 100.31679651 -167 113 C-166.83371094 113.64678711 -166.66742188 114.29357422 -166.49609375 114.95996094 C-162.3846162 130.56073409 -155.13194093 143.49280552 -145 156 C-144.46117187 156.70382813 -143.92234375 157.40765625 -143.3671875 158.1328125 C-127.54523115 177.77112013 -100.58057363 190.07620545 -76 193 C-46.62990429 194.79653804 -18.21041492 186.58218249 4 167 C4.6084375 166.53464844 5.216875 166.06929687 5.84375 165.58984375 C24.40175896 151.27741703 34.76598421 126.3580402 39 104 C39.18433594 103.0821875 39.36867187 102.164375 39.55859375 101.21875 C43.115777 75.27964385 35.86141058 48.26320302 20.8515625 26.94921875 C18.9646874 24.56712931 17.01258266 22.27603232 15 20 C14.28457031 19.08927734 14.28457031 19.08927734 13.5546875 18.16015625 C-2.35106895 -1.88109687 -29.42874547 -13.75017414 -54.34765625 -16.71875 C-84.05418708 -19.00631173 -109.66705862 -10.82431942 -133 8 Z " fill="#1B76B8" transform="translate(182,28)"/>
<path d="M0 0 C17.28101067 13.75560968 28.64229507 33.37078354 31.48828125 55.375 C33.55901152 79.16397906 26.50076822 101.6093991 11.30078125 120.0625 C-1.62805143 135.11103154 -22.17981821 146.57217266 -42.21875 148.28125 C-43.35376953 148.32765625 -43.35376953 148.32765625 -44.51171875 148.375 C-45.67058594 148.4265625 -46.82945313 148.478125 -48.0234375 148.53125 C-70.98417535 149.21888363 -92.50789456 141.23431948 -109.39453125 125.51953125 C-120.61904899 114.15004741 -127.93975397 100.59020263 -132.51171875 85.375 C-132.75792969 84.58351563 -133.00414062 83.79203125 -133.2578125 82.9765625 C-138.47424741 62.470577 -132.96995652 40.38011209 -122.82421875 22.375 C-110.96883555 3.5155413 -93.30374176 -9.56592636 -71.84375 -15.66796875 C-46.52524351 -21.35062616 -20.68692151 -15.77653233 0 0 Z M-112.453125 15.69140625 C-119.49306036 24.86870339 -124.22296491 34.29709232 -127.51171875 45.375 C-127.75792969 46.179375 -128.00414062 46.98375 -128.2578125 47.8125 C-133.30311308 67.85452163 -127.99358057 88.67814927 -118.38671875 106.375 C-107.70304001 123.98925483 -90.49916186 136.3997084 -70.51171875 141.375 C-69.85534424 141.54491455 -69.19896973 141.7148291 -68.52270508 141.88989258 C-63.0675459 143.22031794 -57.93208929 143.72766849 -52.32421875 143.6875 C-51.0875647 143.68012817 -51.0875647 143.68012817 -49.82592773 143.67260742 C-29.67227009 143.29146464 -10.65248243 134.98817207 3.890625 121.09375 C18.76313841 105.52793145 27.2033837 85.68080011 26.89306641 64.09985352 C26.07313778 42.1252923 17.79392787 23.22473693 2.01367188 7.77539062 C-14.21225007 -7.12087831 -34.71571059 -13.33476243 -56.3125 -12.96875 C-78.15188476 -11.9844397 -98.42707848 -0.80528333 -112.453125 15.69140625 Z " fill="#1975B8" transform="translate(168.51171875,50.625)"/>
<path d="M0 0 C15.51 0 31.02 0 47 0 C47 4.29 47 8.58 47 13 C41.39 13 35.78 13 30 13 C30 26.53 30 40.06 30 54 C25.71 54 21.42 54 17 54 C17 40.47 17 26.94 17 13 C11.39 13 5.78 13 0 13 C0 8.71 0 4.42 0 0 Z " fill="#0D6EB6" transform="translate(105,59)"/>
<path d="M0 0 C4.29 0 8.58 0 13 0 C13 1.98 13 3.96 13 6 C18.61 6 24.22 6 30 6 C30 10.29 30 14.58 30 19 C14.49 19 -1.02 19 -17 19 C-17 14.71 -17 10.42 -17 6 C-11.39 6 -5.78 6 0 6 C0 4.02 0 2.04 0 0 Z " fill="#0C6EB6" transform="translate(122,134)"/>
<path d="M0 0 C5.61 0 11.22 0 17 0 C17 0.33 17 0.66 17 1 C15.865625 1.12375 14.73125 1.2475 13.5625 1.375 C11.7990625 1.684375 11.7990625 1.684375 10 2 C9.67 2.66 9.34 3.32 9 4 C7.35 4 5.7 4 4 4 C4 8.62 4 13.24 4 18 C5.794375 17.87625 5.794375 17.87625 7.625 17.75 C12.12260039 17.75796035 14.54891166 19.03045887 18 22 C20.38713778 24.9441366 20.96192889 26.65101478 21.375 30.4375 C20.8189093 35.72036166 19.50696004 38.75989747 15.375 42.16015625 C11.46315897 44.29265292 8.44890264 44.46787106 4.125 44.25 C3.43664062 44.23195312 2.74828125 44.21390625 2.0390625 44.1953125 C0.3587619 44.14863748 -1.32081163 44.07690939 -3 44 C-2.67 43.01 -2.34 42.02 -2 41 C-1.34 41 -0.68 41 0 41 C0 27.47 0 13.94 0 0 Z " fill="#F1F7FA" transform="translate(135,72)"/>
<path d="M0 0 C4.70802887 2.37593263 8.36409071 6.40070859 12.09765625 10.05859375 C12.67515625 10.620625 13.25265625 11.18265625 13.84765625 11.76171875 C14.94504741 12.84663956 16.02451473 13.94968085 17.09765625 15.05859375 C16.10765625 16.70859375 15.11765625 18.35859375 14.09765625 20.05859375 C12.44765625 19.39859375 10.79765625 18.73859375 9.09765625 18.05859375 C5.56179611 21.23180157 3.51187594 23.2260307 3.09765625 28.05859375 C-1.82986579 28.05859375 -2.79152307 26.87966118 -6.46484375 23.74609375 C-7.41488281 22.94558594 -8.36492187 22.14507812 -9.34375 21.3203125 C-11.27069653 19.61695061 -13.12176831 17.91111163 -14.90234375 16.05859375 C-11.4561899 11.25859375 -11.4561899 11.25859375 -8.65234375 10.24609375 C-8.07484375 10.18421875 -7.49734375 10.12234375 -6.90234375 10.05859375 C-7.23234375 11.37859375 -7.56234375 12.69859375 -7.90234375 14.05859375 C-5.37645673 11.69566719 -4.01413538 10.39396864 -2.90234375 7.05859375 C-5.28396384 5.64473464 -5.28396384 5.64473464 -7.90234375 5.05859375 C-7.90234375 3.40859375 -7.90234375 1.75859375 -7.90234375 0.05859375 C-4.77693159 -0.9832103 -3.1202419 -0.96058402 0 0 Z " fill="#F6FAFB" transform="translate(176.90234375,29.94140625)"/>
<path d="M0 0 C3.58702661 1.46814142 5.40373148 3.38434289 7.75 6.4375 C8.36359375 7.21996094 8.9771875 8.00242187 9.609375 8.80859375 C11 11 11 11 11 14 C10.01 14.495 10.01 14.495 9 15 C9 15.99 9 16.98 9 18 C8.34 18 7.68 18 7 18 C6.67 19.65 6.34 21.3 6 23 C7.32 22.67 8.64 22.34 10 22 C10 22.66 10 23.32 10 24 C7.1875 26.1875 7.1875 26.1875 4 28 C3.01 27.67 2.02 27.34 1 27 C1.66 25.35 2.32 23.7 3 22 C2.071875 22.2475 2.071875 22.2475 1.125 22.5 C-1 23 -1 23 -3 23 C-5.16666667 23.83333333 -5.16666667 23.83333333 -6 26 C-7.56524498 24.11990689 -9.10034 22.22505144 -10.625 20.3125 C-11.07101563 19.78205078 -11.51703125 19.25160156 -11.9765625 18.70507812 C-13.2265625 17.11328125 -13.2265625 17.11328125 -15 14 C-14.32421875 11.234375 -14.32421875 11.234375 -13 9 C-12.731875 8.319375 -12.46375 7.63875 -12.1875 6.9375 C-10.58123161 4.31674631 -8.45435148 2.80846951 -6 1 C-4.68 1.99 -3.36 2.98 -2 4 C-1.34 2.68 -0.68 1.36 0 0 Z " fill="#F6FAFB" transform="translate(193,46)"/>
<path d="M0 0 C6.373125 -0.061875 6.373125 -0.061875 12.875 -0.125 C14.88376221 -0.15231201 14.88376221 -0.15231201 16.93310547 -0.18017578 C17.98385254 -0.1851709 19.03459961 -0.19016602 20.1171875 -0.1953125 C21.19597168 -0.20578613 22.27475586 -0.21625977 23.38623047 -0.22705078 C26 0 26 0 28 2 C30.32275177 2.40047444 32.65739357 2.7397104 35 3 C35 4.98 35 6.96 35 9 C40.28 9 45.56 9 51 9 C51 9.33 51 9.66 51 10 C45.39 10 39.78 10 34 10 C34 8.02 34 6.04 34 4 C29.71 4 25.42 4 21 4 C21 5.98 21 7.96 21 10 C15.39 10 9.78 10 4 10 C4 14.29 4 18.58 4 23 C19.51 23 35.02 23 51 23 C51 23.33 51 23.66 51 24 C36.48 24.33 21.96 24.66 7 25 C9.97 25.33 12.94 25.66 16 26 C16 26.33 16 26.66 16 27 C10.72 27 5.44 27 0 27 C0 18.09 0 9.18 0 0 Z " fill="#DEECF4" transform="translate(101,130)"/>
<path d="M0 0 C1.56234375 0.40605469 1.56234375 0.40605469 3.15625 0.8203125 C3.15625 2.1403125 3.15625 3.4603125 3.15625 4.8203125 C4.47625 5.4803125 5.79625 6.1403125 7.15625 6.8203125 C7.15625 7.8103125 7.15625 8.8003125 7.15625 9.8203125 C5.21875 9.5078125 5.21875 9.5078125 3.15625 8.8203125 C2.82625 7.8303125 2.49625 6.8403125 2.15625 5.8203125 C1.49625 6.4803125 0.83625 7.1403125 0.15625 7.8203125 C3.62125 10.7903125 3.62125 10.7903125 7.15625 13.8203125 C6.82625 14.8103125 6.49625 15.8003125 6.15625 16.8203125 C4.09375 17.5078125 4.09375 17.5078125 2.15625 17.8203125 C1.82625 19.8003125 1.49625 21.7803125 1.15625 23.8203125 C0.16625 23.8203125 -0.82375 23.8203125 -1.84375 23.8203125 C-2.17375 24.8103125 -2.50375 25.8003125 -2.84375 26.8203125 C-3.50375 24.8403125 -4.16375 22.8603125 -4.84375 20.8203125 C-5.50375 20.8203125 -6.16375 20.8203125 -6.84375 20.8203125 C-7.50375 18.8403125 -8.16375 16.8603125 -8.84375 14.8203125 C-10.16375 15.1503125 -11.48375 15.4803125 -12.84375 15.8203125 C-13.625 13.6875 -13.625 13.6875 -13.84375 10.8203125 C-12 7.890625 -12 7.890625 -9.34375 4.9453125 C-8.4878125 3.95789062 -7.631875 2.97046875 -6.75 1.953125 C-3.84375 -0.1796875 -3.84375 -0.1796875 0 0 Z " fill="#F7FAFA" transform="translate(47.84375,40.1796875)"/>
<path d="M0 0 C3.375 2.0625 3.375 2.0625 6 5 C6.73590357 9.12105997 6.43202533 11.17195144 4.5 14.875 C1.58630257 17.35164281 -0.26816811 17.96283839 -4.03125 18.1875 C-6 18 -6 18 -8.9375 16.5625 C-11.66161593 13.17799233 -12.46409059 10.3315122 -12 6 C-8.76993388 0.76506525 -6.1122765 -0.70526267 0 0 Z " fill="#D0E4F0" transform="translate(211,15)"/>
<path d="M0 0 C0.69802734 -0.01224609 1.39605469 -0.02449219 2.11523438 -0.03710938 C5.85066182 -0.04777187 8.64279935 0.11531844 11.8125 2.1875 C11.8125 2.5175 11.8125 2.8475 11.8125 3.1875 C2.9025 3.1875 -6.0075 3.1875 -15.1875 3.1875 C-15.1875 3.8475 -15.1875 4.5075 -15.1875 5.1875 C-14.1975 5.5175 -13.2075 5.8475 -12.1875 6.1875 C-12.76081055 6.36289307 -13.33412109 6.53828613 -13.92480469 6.71899414 C-25.09076972 10.17560606 -35.45306953 13.55680098 -45.1875 20.1875 C-45.140625 16.94921875 -45.140625 16.94921875 -44.1875 13.1875 C-41.67374565 11.3522092 -39.73019644 10.21778829 -36.9375 9 C-35.85964233 8.49811157 -35.85964233 8.49811157 -34.76000977 7.98608398 C-23.48606352 2.87424826 -12.38484807 0.01162897 0 0 Z " fill="#1774B8" transform="translate(116.1875,32.8125)"/>
<path d="M0 0 C0.33 0 0.66 0 1 0 C1.33 5.28 1.66 10.56 2 16 C2.66 15.34 3.32 14.68 4 14 C5.67714305 17.81817673 6.55328934 21.46835174 7.3125 25.5625 C8.73747583 32.48381119 11.10236321 38.58312117 14 45 C14.67494235 46.66333251 15.34428838 48.32899297 16 50 C15.01 50 14.02 50 13 50 C13 50.66 13 51.32 13 52 C12.34 52 11.68 52 11 52 C5.34119479 40.64466421 -0.18099749 28.05461159 -0.09765625 15.13671875 C-0.09443359 14.25048828 -0.09121094 13.36425781 -0.08789062 12.45117188 C-0.07951172 11.53916016 -0.07113281 10.62714844 -0.0625 9.6875 C-0.05798828 8.75615234 -0.05347656 7.82480469 -0.04882812 6.86523438 C-0.03709234 4.57675627 -0.02067363 2.28841192 0 0 Z " fill="#1A75B9" transform="translate(34,106)"/>
<path d="M0 0 C0.99 0.99 1.98 1.98 3 3 C2.6875 5.1875 2.6875 5.1875 2 7 C2.886875 7.103125 3.77375 7.20625 4.6875 7.3125 C8.0573702 8.01190702 10.17271538 9.08742511 13 11 C12 13 12 13 9 15 C9.33 15.99 9.66 16.98 10 18 C7.03 17.01 4.06 16.02 1 15 C1 13.68 1 12.36 1 11 C-0.32 11 -1.64 11 -3 11 C-3 11.66 -3 12.32 -3 13 C-3.66 12.67 -4.32 12.34 -5 12 C-3.35 8.04 -1.7 4.08 0 0 Z " fill="#E7F1F6" transform="translate(195,142)"/>
<path d="M0 0 C3.375 2.0625 3.375 2.0625 6 5 C6.73590357 9.12105997 6.43202533 11.17195144 4.5 14.875 C1.58630257 17.35164281 -0.26816811 17.96283839 -4.03125 18.1875 C-6 18 -6 18 -8.9375 16.5625 C-11.66161593 13.17799233 -12.46409059 10.3315122 -12 6 C-8.76993388 0.76506525 -6.1122765 -0.70526267 0 0 Z M-8.4375 4.125 C-10.24870485 6.91225693 -10.24870485 6.91225693 -10 10.125 C-9.1925204 13.02189293 -9.1925204 13.02189293 -7.3125 14.9375 C-4.10056066 16.41325591 -2.33525198 16.06444212 1 15 C3.27605184 12.87568495 3.90218604 11.55893694 4.4375 8.5 C3.84278924 5.10165277 2.79734842 3.98758966 0 2 C-3.9976743 1.25043607 -5.34677052 1.43051789 -8.4375 4.125 Z " fill="#267CBB" transform="translate(211,15)"/>
<path d="M0 0 C0.69802734 -0.01224609 1.39605469 -0.02449219 2.11523438 -0.03710938 C5.85066182 -0.04777187 8.64279935 0.11531844 11.8125 2.1875 C11.8125 2.5175 11.8125 2.8475 11.8125 3.1875 C2.9025 3.1875 -6.0075 3.1875 -15.1875 3.1875 C-15.1875 3.8475 -15.1875 4.5075 -15.1875 5.1875 C-14.1975 5.5175 -13.2075 5.8475 -12.1875 6.1875 C-17.6325 7.6725 -17.6325 7.6725 -23.1875 9.1875 C-22.8575 8.1975 -22.5275 7.2075 -22.1875 6.1875 C-23.5075 5.5275 -24.8275 4.8675 -26.1875 4.1875 C-24.50159158 3.70276322 -22.81367455 3.22501074 -21.125 2.75 C-20.18527344 2.48316406 -19.24554688 2.21632812 -18.27734375 1.94140625 C-12.17864906 0.45335559 -6.24427081 0.00586317 0 0 Z " fill="#297FBE" transform="translate(116.1875,32.8125)"/>
<path d="M0 0 C0.33 0 0.66 0 1 0 C1.33 5.28 1.66 10.56 2 16 C2.66 15.34 3.32 14.68 4 14 C6.20399168 18.55491614 6.58846263 23.02906176 7 28 C6.34 28.33 5.68 28.66 5 29 C3.86649466 31.01669827 3.86649466 31.01669827 3 33 C-0.39129971 21.93790332 -0.30854946 11.46204123 0 0 Z " fill="#2E81BE" transform="translate(34,106)"/>
<path d="M0 0 C2.5 0.25 2.5 0.25 4.5 2.25 C4.8125 5.25 4.8125 5.25 4.5 8.25 C1.5 10.25 1.5 10.25 -1.0625 10 C-3.5 9.25 -3.5 9.25 -5.5 7.25 C-5.08994391 3.14943907 -4.53376372 0.45337637 0 0 Z " fill="#3785BF" transform="translate(91.5,200.75)"/>
<path d="M0 0 C2.35151077 0.59940471 4.68308546 1.27833809 7 2 C10.00906207 2.22361366 12.99331996 2.27744043 16 2 C16.33 1.67 16.66 1.34 17 1 C18.99958364 0.95919217 21.00045254 0.95745644 23 1 C23.33 1.66 23.66 2.32 24 3 C26.12576782 3.46651207 26.12576782 3.46651207 28.5625 3.625 C29.38878906 3.69976562 30.21507812 3.77453125 31.06640625 3.8515625 C31.70449219 3.90054688 32.34257812 3.94953125 33 4 C33 4.33 33 4.66 33 5 C28.89589532 5.05888242 24.79190173 5.09388921 20.6875 5.125 C18.96563477 5.15013672 18.96563477 5.15013672 17.20898438 5.17578125 C9.90790257 5.21714715 3.12642698 4.6033331 -4 3 C-2.19921875 1.44921875 -2.19921875 1.44921875 0 0 Z " fill="#247CBD" transform="translate(97,220)"/>
<path d="M0 0 C2.4375 0.875 2.4375 0.875 4.4375 3.875 C4.0625 6.5625 4.0625 6.5625 3.4375 8.875 C0.0625 9.5 0.0625 9.5 -3.5625 9.875 C-5.5625 7.875 -5.5625 7.875 -5.875 5.4375 C-5.5625 2.875 -5.5625 2.875 -4.375 1 C-2.5625 -0.125 -2.5625 -0.125 0 0 Z " fill="#3081BB" transform="translate(42.5625,166.125)"/>
<path d="M0 0 C3 0.25 3 0.25 5 2.25 C5.25 4.75 5.25 4.75 5 7.25 C3 9.25 3 9.25 0 9.5 C-3 9.25 -3 9.25 -5 7.25 C-5.25 4.75 -5.25 4.75 -5 2.25 C-3 0.25 -3 0.25 0 0 Z " fill="#287CBA" transform="translate(24,100.75)"/>
<path d="M0 0 C1.32841008 5.43440487 1.32841008 5.43440487 -0.125 7.9375 C-2 9 -2 9 -4.5625 8.8125 C-7 8 -7 8 -9 6 C-8.75 2.9375 -8.75 2.9375 -8 0 C-5.13822943 -1.43088528 -3.06624227 -0.59991697 0 0 Z " fill="#3384BE" transform="translate(110,20)"/>
<path d="M0 0 C2.5625 0.3125 2.5625 0.3125 4.4375 1.5 C5.5625 3.3125 5.5625 3.3125 5.3125 5.9375 C4.5625 8.3125 4.5625 8.3125 3.5625 9.3125 C0.625 9.5 0.625 9.5 -2.4375 9.3125 C-4.4375 7.3125 -4.4375 7.3125 -4.6875 4.8125 C-4.34234788 1.3609788 -3.44095645 0.44114826 0 0 Z " fill="#2179B7" transform="translate(190.4375,168.6875)"/>
<path d="M0 0 C1.10214844 -0.00580078 1.10214844 -0.00580078 2.2265625 -0.01171875 C7.19164537 -0.00297741 11.95971773 0.42281682 16.875 1.125 C16.875 1.785 16.875 2.445 16.875 3.125 C12.93790089 3.32165429 9.00031328 3.50575477 5.0625 3.6875 C3.94294922 3.74357422 2.82339844 3.79964844 1.66992188 3.85742188 C0.06020508 3.92993164 0.06020508 3.92993164 -1.58203125 4.00390625 C-3.0666687 4.07460327 -3.0666687 4.07460327 -4.58129883 4.14672852 C-7.125 4.125 -7.125 4.125 -10.125 3.125 C-10.125 2.465 -10.125 1.805 -10.125 1.125 C-6.93565971 -0.46967014 -3.49882982 -0.01785117 0 0 Z " fill="#0D6FB6" transform="translate(111.125,34.875)"/>
<path d="M0 0 C0.99 0 1.98 0 3 0 C3 1.98 3 3.96 3 6 C3.99 5.34 4.98 4.68 6 4 C8.1875 4.375 8.1875 4.375 10 5 C8.68 7.31 7.36 9.62 6 12 C5.01 12 4.02 12 3 12 C3 11.34 3 10.68 3 10 C2.01 9.67 1.02 9.34 0 9 C0 8.01 0 7.02 0 6 C-1.98 6.99 -1.98 6.99 -4 8 C-2.87548273 5.0280615 -1.77706209 2.66559313 0 0 Z " fill="#267BB9" transform="translate(165,32)"/>
<path d="M0 0 C0.99 0 1.98 0 3 0 C4.57255046 3.14510093 4.22572668 6.48765445 4.25 9.9375 C4.270625 10.66646484 4.29125 11.39542969 4.3125 12.14648438 C4.35200945 17.53458545 4.35200945 17.53458545 2.484375 20.00390625 C1.99453125 20.33261719 1.5046875 20.66132812 1 21 C0.07811539 18.23434618 -0.11785222 16.61716298 -0.09765625 13.76953125 C-0.09282227 12.56586914 -0.09282227 12.56586914 -0.08789062 11.33789062 C-0.07951172 10.50451172 -0.07113281 9.67113281 -0.0625 8.8125 C-0.05798828 7.96751953 -0.05347656 7.12253906 -0.04882812 6.25195312 C-0.03705403 4.16793845 -0.0191189 2.08396023 0 0 Z " fill="#0C6EB6" transform="translate(35,104)"/>
<path d="M0 0 C0.66 1.32 1.32 2.64 2 4 C2.66 4 3.32 4 4 4 C3.34 7.96 2.68 11.92 2 16 C1.34 16 0.68 16 0 16 C0 15.34 0 14.68 0 14 C-0.99 14 -1.98 14 -3 14 C-2.48594831 9.03083364 -1.76615118 4.70973649 0 0 Z " fill="#1E77BA" transform="translate(38,90)"/>
<path d="M0 0 C-0.33 1.98 -0.66 3.96 -1 6 C0.32 5.67 1.64 5.34 3 5 C3 5.66 3 6.32 3 7 C0.1875 9.1875 0.1875 9.1875 -3 11 C-3.99 10.67 -4.98 10.34 -6 10 C-5.34 8.35 -4.68 6.7 -4 5 C-5.32 5.33 -6.64 5.66 -8 6 C-8 5.01 -8 4.02 -8 3 C-5.11165997 0.89229241 -3.61537605 0 0 0 Z " fill="#297CBA" transform="translate(200,63)"/>
<path d="M0 0 C1.60294922 0.01353516 1.60294922 0.01353516 3.23828125 0.02734375 C4.04652344 0.03894531 4.85476562 0.05054688 5.6875 0.0625 C4.6875 3.0625 4.6875 3.0625 2.6875 4.0625 C0.4802077 4.13342842 -1.72917452 4.14665025 -3.9375 4.125 C-5.12601562 4.11597656 -6.31453125 4.10695312 -7.5390625 4.09765625 C-8.45429687 4.08605469 -9.36953125 4.07445312 -10.3125 4.0625 C-10.6425 3.0725 -10.9725 2.0825 -11.3125 1.0625 C-7.47525828 0.15836327 -3.93747726 -0.04326898 0 0 Z " fill="#0D6EB7" transform="translate(131.3125,219.9375)"/>
<path d="M0 0 C1.32 0.66 2.64 1.32 4 2 C3.41196203 5.02419525 2.77321882 8.01758453 2 11 C1.01 11 0.02 11 -1 11 C-1.33 10.34 -1.66 9.68 -2 9 C-2.66 9 -3.32 9 -4 9 C-3.46930939 5.17902761 -2.50298434 2.93828597 0 0 Z " fill="#3082BE" transform="translate(71,192)"/>
<path d="M0 0 C0.33 0 0.66 0 1 0 C1.41276847 5.02693031 0.52437156 7.37850901 -2.5 11.375 C-3.47453125 12.68597656 -3.47453125 12.68597656 -4.46875 14.0234375 C-5.22671875 15.00183594 -5.22671875 15.00183594 -6 16 C-6.99 15.34 -7.98 14.68 -9 14 C-8.34 13.67 -7.68 13.34 -7 13 C-6.19415344 10.73743083 -5.59481291 8.44920748 -4.9765625 6.12890625 C-3.77105036 3.50088979 -2.65237584 2.99873411 0 2 C0 1.34 0 0.68 0 0 Z " fill="#1573B7" transform="translate(210,166)"/>
<path d="M0 0 C3.77545388 1.09068668 6.47043472 1.9083091 9 5 C7.68 5.99 6.36 6.98 5 8 C5.33 8.99 5.66 9.98 6 11 C0.25 9.125 0.25 9.125 -2 8 C-2 7.01 -2 6.02 -2 5 C-0.35 4.67 1.3 4.34 3 4 C2.01 3.34 1.02 2.68 0 2 C0 1.34 0 0.68 0 0 Z " fill="#2379B8" transform="translate(199,149)"/>
<path d="M0 0 C0.66 0 1.32 0 2 0 C1.34 1.98 0.68 3.96 0 6 C1.32 5.67 2.64 5.34 4 5 C3.34 5 2.68 5 2 5 C2.33 4.01 2.66 3.02 3 2 C4.32 2.33 5.64 2.66 7 3 C6.25 7.75 6.25 7.75 4 10 C0.70285207 9.67028521 -0.6226839 9.3773161 -3 7 C-2.67028521 3.70285207 -2.3773161 2.3773161 0 0 Z " fill="#2D7FBC" transform="translate(37,60)"/>
<path d="M0 0 C1.65 0 3.3 0 5 0 C5 0.66 5 1.32 5 2 C6.32 2 7.64 2 9 2 C8.67 3.98 8.34 5.96 8 8 C5.03 7.01 2.06 6.02 -1 5 C-0.67 3.35 -0.34 1.7 0 0 Z " fill="#2E80BC" transform="translate(25,81)"/>
<path d="M0 0 C2.31 0.33 4.62 0.66 7 1 C7 3.64 7 6.28 7 9 C5 9 5 9 3.375 7.5 C2.92125 7.005 2.4675 6.51 2 6 C2 6.99 2 7.98 2 9 C1.34 9 0.68 9 0 9 C0 6.03 0 3.06 0 0 Z " fill="#247ABA" transform="translate(205,19)"/>
<path d="M0 0 C0.33 0 0.66 0 1 0 C1 7.26 1 14.52 1 22 C0.34 20.68 -0.32 19.36 -1 18 C-1.66 18.33 -2.32 18.66 -3 19 C-3.0270043 17.54176788 -3.04639787 16.08339325 -3.0625 14.625 C-3.07410156 13.81289062 -3.08570313 13.00078125 -3.09765625 12.1640625 C-3 10 -3 10 -2 8 C-1.34 8 -0.68 8 0 8 C0 5.36 0 2.72 0 0 Z " fill="#2079B9" transform="translate(225,104)"/>
<path d="M0 0 C2.46800047 1.15173355 4.04783565 2.04783565 6 4 C5.625 6.625 5.625 6.625 5 9 C3.35 9.33 1.7 9.66 0 10 C-1.65 8.02 -3.3 6.04 -5 4 C-4.01 3.67 -3.02 3.34 -2 3 C-1.01 4.485 -1.01 4.485 0 6 C0.99 6.33 1.98 6.66 3 7 C2.505 6.21625 2.01 5.4325 1.5 4.625 C0 2 0 2 0 0 Z " fill="#3281BC" transform="translate(52,43)"/>
<path d="M0 0 C0 3.3 0 6.6 0 10 C-0.66 10 -1.32 10 -2 10 C-2 9.01 -2 8.02 -2 7 C-3.98 7.33 -5.96 7.66 -8 8 C-5.18918919 0 -5.18918919 0 0 0 Z " fill="#1B76B7" transform="translate(150,24)"/>
<path d="M0 0 C0.33 1.98 0.66 3.96 1 6 C-0.65 6.33 -2.3 6.66 -4 7 C-4.33 6.01 -4.66 5.02 -5 4 C-6.32 4.33 -7.64 4.66 -9 5 C-8.67 4.01 -8.34 3.02 -8 2 C-5.10441559 0.5522078 -3.25811062 0 0 0 Z " fill="#3483BE" transform="translate(35,149)"/>
<path d="M0 0 C2.9375 0.5 2.9375 0.5 4.8125 1.8125 C5.9375 3.5 5.9375 3.5 5.9375 6.5 C5.2775 6.5 4.6175 6.5 3.9375 6.5 C3.9375 5.51 3.9375 4.52 3.9375 3.5 C1.6275 3.5 -0.6825 3.5 -3.0625 3.5 C-3.3925 6.14 -3.7225 8.78 -4.0625 11.5 C-4.7225 11.5 -5.3825 11.5 -6.0625 11.5 C-7.11332025 7.73456077 -7.4016456 6.1240279 -5.5 2.625 C-3.0625 0.5 -3.0625 0.5 0 0 Z " fill="#DCEBF4" transform="translate(208.0625,16.5)"/>
<path d="M0 0 C-0.33 0.66 -0.66 1.32 -1 2 C-4.76300374 3.25433458 -8.27210909 3.10695422 -12.1875 3.0625 C-12.93708984 3.05798828 -13.68667969 3.05347656 -14.45898438 3.04882812 C-16.30602383 3.03706354 -18.15302213 3.01912865 -20 3 C-20.33 2.34 -20.66 1.68 -21 1 C-13.98441385 0.4011085 -7.04321257 -0.13810221 0 0 Z " fill="#297EBD" transform="translate(128,196)"/>
<path d="M0 0 C1.23556641 0.01740234 1.23556641 0.01740234 2.49609375 0.03515625 C3.32238281 0.04417969 4.14867187 0.05320312 5 0.0625 C5.63808594 0.07410156 6.27617187 0.08570312 6.93359375 0.09765625 C6.93359375 1.74765625 6.93359375 3.39765625 6.93359375 5.09765625 C6.27359375 5.09765625 5.61359375 5.09765625 4.93359375 5.09765625 C4.93359375 4.10765625 4.93359375 3.11765625 4.93359375 2.09765625 C4.27359375 2.09765625 3.61359375 2.09765625 2.93359375 2.09765625 C2.93359375 3.08765625 2.93359375 4.07765625 2.93359375 5.09765625 C0.95359375 5.42765625 -1.02640625 5.75765625 -3.06640625 6.09765625 C-3.10912725 4.4315372 -3.10704457 2.7638274 -3.06640625 1.09765625 C-2.06640625 0.09765625 -2.06640625 0.09765625 0 0 Z " fill="#3885BF" transform="translate(208.06640625,102.90234375)"/>
<path d="M0 0 C2.97 0 5.94 0 9 0 C8.67 0.99 8.34 1.98 8 3 C6.35 3 4.7 3 3 3 C3 7.62 3 12.24 3 17 C2.67 17 2.34 17 2 17 C1.67 13.37 1.34 9.74 1 6 C0.67 6 0.34 6 0 6 C0 4.02 0 2.04 0 0 Z " fill="#E0EDF6" transform="translate(136,73)"/>
<path d="M0 0 C1.65 0.33 3.3 0.66 5 1 C5 1.66 5 2.32 5 3 C4.67 3.33 4.34 3.66 4 4 C4.28604898 5.67542976 4.61781233 7.34385343 5 9 C3.35 9.33 1.7 9.66 0 10 C-0.33 9.01 -0.66 8.02 -1 7 C-0.34 6.67 0.32 6.34 1 6 C0.34 5.34 -0.32 4.68 -1 4 C-0.625 1.875 -0.625 1.875 0 0 Z " fill="#3582BC" transform="translate(125,19)"/>
<path d="M0 0 C6.69007182 0.52405563 13.3487487 1.10463925 20 2 C19.67 2.66 19.34 3.32 19 4 C13.18408411 4.23738432 8.62877342 3.62368464 3 2 C0.17855097 2.27734938 0.17855097 2.27734938 -2 3 C-1.34 2.01 -0.68 1.02 0 0 Z " fill="#0B6FB7" transform="translate(94,219)"/>
<path d="M0 0 C0.99 0 1.98 0 3 0 C3 0.66 3 1.32 3 2 C4.32 2.66 5.64 3.32 7 4 C6.67 5.65 6.34 7.3 6 9 C4.68 9 3.36 9 2 9 C2 8.34 2 7.68 2 7 C2.99 7 3.98 7 5 7 C5 6.34 5 5.68 5 5 C3.35 5.33 1.7 5.66 0 6 C-0.38218767 4.34385343 -0.71395102 2.67542976 -1 1 C-0.67 0.67 -0.34 0.34 0 0 Z " fill="#287BB8" transform="translate(173,184)"/>
<path d="M0 0 C1.65 0 3.3 0 5 0 C5.33 0.66 5.66 1.32 6 2 C5.01 2.495 5.01 2.495 4 3 C4.66 3.66 5.32 4.32 6 5 C5.625 7.125 5.625 7.125 5 9 C3.35 8.67 1.7 8.34 0 8 C0 7.34 0 6.68 0 6 C0.99 6 1.98 6 3 6 C2.01 5.34 1.02 4.68 0 4 C0 2.68 0 1.36 0 0 Z " fill="#2679B8" transform="translate(109,205)"/>
<path d="M0 0 C4.95 0 9.9 0 15 0 C15 0.66 15 1.32 15 2 C7.08 2.495 7.08 2.495 -1 3 C-0.67 2.01 -0.34 1.02 0 0 Z " fill="#0C6EB6" transform="translate(113,194)"/>
<path d="M0 0 C0.99 0.66 1.98 1.32 3 2 C2 5 2 5 1 7 C-0.32 6.67 -1.64 6.34 -3 6 C-2.67 7.32 -2.34 8.64 -2 10 C-3.32 9.34 -4.64 8.68 -6 8 C-4.55746343 4.63408134 -2.66735273 2.48952921 0 0 Z " fill="#2B7DBA" transform="translate(186,47)"/>
<path d="M0 0 C0.66 0.99 1.32 1.98 2 3 C2.66 3 3.32 3 4 3 C3.45276317 6.37462715 2.9451 8.08235 1 11 C-0.32 11 -1.64 11 -3 11 C-2.01 7.37 -1.02 3.74 0 0 Z " fill="#2A7EBD" transform="translate(218,142)"/>
<path d="M0 0 C-0.99 0.495 -0.99 0.495 -2 1 C-2.33 1.99 -2.66 2.98 -3 4 C-5.97 3.67 -8.94 3.34 -12 3 C-12 2.34 -12 1.68 -12 1 C-7.53763531 -0.80619523 -4.68965706 -1.11658501 0 0 Z " fill="#247ABB" transform="translate(102,192)"/>
<path d="M0 0 C2.64 0 5.28 0 8 0 C8 1.32 8 2.64 8 4 C5.03 4 2.06 4 -1 4 C-1.33 3.34 -1.66 2.68 -2 2 C-1.34 2 -0.68 2 0 2 C0 1.34 0 0.68 0 0 Z " fill="#0C6EB5" transform="translate(112,7)"/>
<path d="M0 0 C0.33 0.66 0.66 1.32 1 2 C3.80980673 2.69227032 3.80980673 2.69227032 7.0625 3.125 C8.71958984 3.37636719 8.71958984 3.37636719 10.41015625 3.6328125 C11.26480469 3.75398437 12.11945313 3.87515625 13 4 C13 4.33 13 4.66 13 5 C7.72 5 2.44 5 -3 5 C-3 3.68 -3 2.36 -3 1 C-2.01 0.67 -1.02 0.34 0 0 Z " fill="#D6E9F5" transform="translate(104,152)"/>
<path d="M0 0 C0.66 0 1.32 0 2 0 C2.33 1.32 2.66 2.64 3 4 C3.99 3.67 4.98 3.34 6 3 C5.67 3.99 5.34 4.98 5 6 C4.01 6 3.02 6 2 6 C1.67 6.66 1.34 7.32 1 8 C1.99 7.67 2.98 7.34 4 7 C3.67 7.99 3.34 8.98 3 10 C1.35 9.67 -0.3 9.34 -2 9 C-1.690625 8.401875 -1.38125 7.80375 -1.0625 7.1875 C0.10209704 4.91043228 0.10209704 4.91043228 1 2 C0.34 1.67 -0.32 1.34 -1 1 C-0.67 0.67 -0.34 0.34 0 0 Z " fill="#E3EFF6" transform="translate(38,57)"/>
<path d="M0 0 C2.9375 0.75 2.9375 0.75 6 2 C6.875 4.125 6.875 4.125 7 6 C1.46153846 5.38461538 1.46153846 5.38461538 -0.875 3.4375 C-1.24625 2.963125 -1.6175 2.48875 -2 2 C-1.34 1.34 -0.68 0.68 0 0 Z " fill="#1371B6" transform="translate(167,20)"/>
<path d="M0 0 C1.45922693 0.11409593 2.91740598 0.24165544 4.375 0.375 C5.59316406 0.47941406 5.59316406 0.47941406 6.8359375 0.5859375 C9 1 9 1 11 3 C10 4 10 4 7.93359375 4.09765625 C7.10988281 4.08605469 6.28617188 4.07445312 5.4375 4.0625 C4.61121094 4.05347656 3.78492188 4.04445313 2.93359375 4.03515625 C2.29550781 4.02355469 1.65742188 4.01195312 1 4 C0.67 2.68 0.34 1.36 0 0 Z " fill="#1171B8" transform="translate(139,10)"/>
<path d="M0 0 C7.75 -0.125 7.75 -0.125 10 1 C9.67 2.32 9.34 3.64 9 5 C2.25 3.375 2.25 3.375 0 0 Z " fill="#1572B7" transform="translate(73,214)"/>
<path d="M0 0 C1.12894876 0.93274109 2.25300876 1.87140122 3.375 2.8125 C4.00148438 3.33457031 4.62796875 3.85664063 5.2734375 4.39453125 C7 6 7 6 9 9 C8.01 9 7.02 9 6 9 C5.67 8.01 5.34 7.02 5 6 C3.68 6.33 2.36 6.66 1 7 C-0.0625 5.1875 -0.0625 5.1875 -1 3 C-0.67 2.01 -0.34 1.02 0 0 Z " fill="#106EB2" transform="translate(56,166)"/>
<path d="M0 0 C0.33 1.32 0.66 2.64 1 4 C1.66 4 2.32 4 3 4 C2.39816251 6.02045442 1.72693904 8.02111039 1 10 C0.01 10.495 0.01 10.495 -1 11 C-1.33 10.34 -1.66 9.68 -2 9 C-2.66 8.67 -3.32 8.34 -4 8 C-2.68 5.36 -1.36 2.72 0 0 Z " fill="#237BBB" transform="translate(212,159)"/>
<path d="M0 0 C0.33 0 0.66 0 1 0 C1 3.3 1 6.6 1 10 C-0.98 10.99 -0.98 10.99 -3 12 C-2.88541307 10.56163249 -2.75790884 9.12429034 -2.625 7.6875 C-2.55539063 6.88699219 -2.48578125 6.08648437 -2.4140625 5.26171875 C-2 3 -2 3 0 0 Z " fill="#0E6FB6" transform="translate(224,120)"/>
<path d="M0 0 C2 1 4 2 6 3 C6 3.66 6 4.32 6 5 C5.2575 5.28875 4.515 5.5775 3.75 5.875 C1.43260203 6.82302644 -0.77917115 7.84845911 -3 9 C-2.690625 8.443125 -2.38125 7.88625 -2.0625 7.3125 C-0.94238179 4.87459567 -0.43962636 2.63775814 0 0 Z " fill="#2A7BB7" transform="translate(55,181)"/>
<path d="M0 0 C0.99 0 1.98 0 3 0 C3.33 1.98 3.66 3.96 4 6 C1.03 6 -1.94 6 -5 6 C-5 5.34 -5 4.68 -5 4 C-3.35 3.67 -1.7 3.34 0 3 C0 2.01 0 1.02 0 0 Z " fill="#2D7EBB" transform="translate(207,83)"/>
<path d="M0 0 C1.32 0 2.64 0 4 0 C4.042721 1.66611905 4.04063832 3.33382885 4 5 C3.67 5.33 3.34 5.66 3 6 C2.76636119 7.84891946 2.58696365 9.70488031 2.4375 11.5625 C2.35371094 12.57441406 2.26992187 13.58632812 2.18359375 14.62890625 C2.12300781 15.41136719 2.06242187 16.19382812 2 17 C1.67 17 1.34 17 1 17 C0.67 11.39 0.34 5.78 0 0 Z " fill="#EEF6FA" transform="translate(117,73)"/>
<path d="M0 0 C0.66 0 1.32 0 2 0 C2.66 1.98 3.32 3.96 4 6 C5.32 5.67 6.64 5.34 8 5 C7.34 6.32 6.68 7.64 6 9 C5.01 9 4.02 9 3 9 C1.68 6.36 0.36 3.72 -1 1 C-0.67 0.67 -0.34 0.34 0 0 Z " fill="#3382BD" transform="translate(66,32)"/>
<path d="M0 0 C-0.7115625 0.680625 -0.7115625 0.680625 -1.4375 1.375 C-3.09027808 2.93258204 -3.09027808 2.93258204 -4 5 C-6.5625 5.625 -6.5625 5.625 -9 6 C-9.33 5.34 -9.66 4.68 -10 4 C-9.34 3.67 -8.68 3.34 -8 3 C-8.66 2.34 -9.32 1.68 -10 1 C-3.375 -1.125 -3.375 -1.125 0 0 Z " fill="#257EC1" transform="translate(152,216)"/>
<path d="M0 0 C0.144375 0.7425 0.28875 1.485 0.4375 2.25 C0.90187492 4.52027739 1.41863569 6.75759479 2 9 C-1.45252796 7.84915735 -1.98396862 6.89256677 -4 4 C-4.66 3.34 -5.32 2.68 -6 2 C-3 0 -3 0 0 0 Z " fill="#277BB7" transform="translate(161,194)"/>
<path d="M0 0 C0.33 0 0.66 0 1 0 C1 3.63 1 7.26 1 11 C0.34 11 -0.32 11 -1 11 C-1.33 11.66 -1.66 12.32 -2 13 C-2.05447047 11.58376784 -2.09300508 10.16691809 -2.125 8.75 C-2.14820313 7.96109375 -2.17140625 7.1721875 -2.1953125 6.359375 C-1.9828378 3.79268059 -1.28654105 2.2083933 0 0 Z " fill="#0D70B5" transform="translate(221,134)"/>
<path d="M0 0 C5.625 -0.25 5.625 -0.25 9 2 C8.67 2.99 8.34 3.98 8 5 C5.69 4.67 3.38 4.34 1 4 C0.67 2.68 0.34 1.36 0 0 Z " fill="#1271B5" transform="translate(145,40)"/>
<path d="M0 0 C1.98 0.495 1.98 0.495 4 1 C4 3.64 4 6.28 4 9 C1.47411298 6.63707344 0.11179163 5.33537489 -1 2 C-0.67 1.34 -0.34 0.68 0 0 Z " fill="#1370B4" transform="translate(47,156)"/>
<path d="M0 0 C0.66 0 1.32 0 2 0 C2.99 1.98 3.98 3.96 5 6 C5.66 6 6.32 6 7 6 C6.67 6.99 6.34 7.98 6 9 C4.68 9 3.36 9 2 9 C1.34 6.03 0.68 3.06 0 0 Z " fill="#267BB7" transform="translate(83,24)"/>
<path d="M0 0 C2.33218272 0.84806644 3.44954313 1.8950996 5.0625 3.75 C2.8125 4.5 2.8125 4.5 0.0625 4.75 C-2.25 2.8125 -2.25 2.8125 -3.9375 0.75 C-1.9375 -0.25 -1.9375 -0.25 0 0 Z " fill="#257CBC" transform="translate(41.9375,190.25)"/>
<path d="M0 0 C0 0.99 0 1.98 0 3 C-3.3 3 -6.6 3 -10 3 C-10 2.34 -10 1.68 -10 1 C-6.59437148 0.22157062 -3.49234244 -0.09978121 0 0 Z " fill="#1973B7" transform="translate(130,220)"/>
<path d="M0 0 C2.64 0.99 5.28 1.98 8 3 C5.58798021 5.41201979 4.37036311 5.75925978 1 6 C-1.3125 4.5625 -1.3125 4.5625 -3 3 C-2.01 2.67 -1.02 2.34 0 2 C0 1.34 0 0.68 0 0 Z " fill="#267EBE" transform="translate(71,210)"/>
<path d="M0 0 C1.88391785 3.26545761 2.49287967 6.28111761 3 10 C2.34 10 1.68 10 1 10 C0.34 10.66 -0.32 11.32 -1 12 C-2.36884358 7.48281619 -1.47075246 4.41225737 0 0 Z " fill="#287CBC" transform="translate(15,141)"/>
<path d="M0 0 C1.98 0.99 3.96 1.98 6 3 C3 4 3 4 0 3 C0 3.66 0 4.32 0 5 C-1.98 4.34 -3.96 3.68 -6 3 C-5.67 2.34 -5.34 1.68 -5 1 C-3.02 1.495 -3.02 1.495 -1 2 C-0.67 1.34 -0.34 0.68 0 0 Z " fill="#237ABB" transform="translate(154,42)"/>
<path d="M0 0 C0 0.66 0 1.32 0 2 C0.66 2.66 1.32 3.32 2 4 C0.35 4.66 -1.3 5.32 -3 6 C-3 5.34 -3 4.68 -3 4 C-4.65 4 -6.3 4 -8 4 C-2.7826087 0 -2.7826087 0 0 0 Z " fill="#257DBC" transform="translate(74,16)"/>
<path d="M0 0 C2.64 0 5.28 0 8 0 C7.67 1.32 7.34 2.64 7 4 C4.69 3.67 2.38 3.34 0 3 C0 2.01 0 1.02 0 0 Z " fill="#287FC0" transform="translate(104,7)"/>
<path d="M0 0 C-1.65 1.65 -3.3 3.3 -5 5 C-6.32 4.01 -7.64 3.02 -9 2 C-5.5647952 -0.29013653 -4.014669 -0.17842973 0 0 Z " fill="#2C7FBD" transform="translate(196,191)"/>
<path d="M0 0 C1 2 2 4 3 6 C2.34 6.66 1.68 7.32 1 8 C0.34 8 -0.32 8 -1 8 C-1.99 8.33 -2.98 8.66 -4 9 C-2.94124926 5.59687262 -1.99097846 2.98646769 0 0 Z " fill="#1F78B7" transform="translate(47,71)"/>
<path d="M0 0 C0.33 0.66 0.66 1.32 1 2 C1.99 2 2.98 2 4 2 C4 1.34 4 0.68 4 0 C8.875 1.75 8.875 1.75 10 4 C7.03 3.505 7.03 3.505 4 3 C3.67 3.66 3.34 4.32 3 5 C1.68 3.68 0.36 2.36 -1 1 C-0.67 0.67 -0.34 0.34 0 0 Z " fill="#2179BA" transform="translate(159,48)"/>
<path d="M0 0 C0.33 1.98 0.66 3.96 1 6 C-0.32 6.33 -1.64 6.66 -3 7 C-3.103125 6.360625 -3.20625 5.72125 -3.3125 5.0625 C-3.539375 4.381875 -3.76625 3.70125 -4 3 C-4.99 2.67 -5.98 2.34 -7 2 C-2.25 0 -2.25 0 0 0 Z " fill="#EBF4F8" transform="translate(92,31)"/>
<path d="M0 0 C0.33 0.99 0.66 1.98 1 3 C-4.94 1.515 -4.94 1.515 -11 0 C-11 -0.33 -11 -0.66 -11 -1 C-3.24 -2.49230769 -3.24 -2.49230769 0 0 Z " fill="#3082BE" transform="translate(153,15)"/>
<path d="M0 0 C1.32 0 2.64 0 4 0 C4 1.65 4 3.3 4 5 C2.35 4.67 0.7 4.34 -1 4 C-0.67 2.68 -0.34 1.36 0 0 Z " fill="#D9E9F4" transform="translate(22,103)"/>
<path d="M0 0 C1 3 1 3 0.0625 5.1875 C-0.4634375 6.0846875 -0.4634375 6.0846875 -1 7 C-1.99 7 -2.98 7 -4 7 C-3.6875 4.625 -3.6875 4.625 -3 2 C-2.01 1.34 -1.02 0.68 0 0 Z " fill="#0F6FB3" transform="translate(71,47)"/>
<path d="M0 0 C0.66 0 1.32 0 2 0 C3.49821059 3.37097383 4 5.20442119 4 9 C3.34 9 2.68 9 2 9 C0.50178941 5.62902617 0 3.79557881 0 0 Z " fill="#2B7DB8" transform="translate(142,201)"/>
<path d="M0 0 C1.98 0.495 1.98 0.495 4 1 C3.67 2.32 3.34 3.64 3 5 C1.68 5 0.36 5 -1 5 C-0.67 3.35 -0.34 1.7 0 0 Z " fill="#DFEDF4" transform="translate(90,203)"/>
<path d="M0 0 C2.375 -0.125 2.375 -0.125 5 0 C7 2 7 2 7 6 C6.34 6 5.68 6 5 6 C4.67 5.01 4.34 4.02 4 3 C2.35 2.67 0.7 2.34 -1 2 C-0.67 1.34 -0.34 0.68 0 0 Z " fill="#1E76B9" transform="translate(89,201)"/>
<path d="M0 0 C3.65316671 1.24976756 4.78065836 1.67098753 7 5 C5.68 5.33 4.36 5.66 3 6 C1.68 4.35 0.36 2.7 -1 1 C-0.67 0.67 -0.34 0.34 0 0 Z " fill="#106DB2" transform="translate(35,185)"/>
<path d="M0 0 C1.32 0 2.64 0 4 0 C3.67 1.65 3.34 3.3 3 5 C1.68 4.67 0.36 4.34 -1 4 C-0.67 2.68 -0.34 1.36 0 0 Z " fill="#E4F1F7" transform="translate(40,169)"/>
<path d="M0 0 C1.98 0.495 1.98 0.495 4 1 C3.67 2.32 3.34 3.64 3 5 C1.68 5 0.36 5 -1 5 C-0.67 3.35 -0.34 1.7 0 0 Z " fill="#247AB8" transform="translate(209,128)"/>
<path d="M0 0 C1.98 0.495 1.98 0.495 4 1 C4 2.32 4 3.64 4 5 C2.35 4.67 0.7 4.34 -1 4 C-0.67 2.68 -0.34 1.36 0 0 Z " fill="#267AB6" transform="translate(22,128)"/>
<path d="M0 0 C0.66 1.32 1.32 2.64 2 4 C2.66 4 3.32 4 4 4 C3.67 6.31 3.34 8.62 3 11 C1.47657021 8.06195683 0.07229283 5.13439441 -1 2 C-0.67 1.34 -0.34 0.68 0 0 Z " fill="#287CBC" transform="translate(38,90)"/>
<path d="M0 0 C3.41021743 0.78697325 6.68885166 1.87119943 10 3 C10 3.66 10 4.32 10 5 C3.47692308 4.50769231 3.47692308 4.50769231 1.0625 1.9375 C0.711875 1.298125 0.36125 0.65875 0 0 Z " fill="#3886BE" transform="translate(200,28)"/>
<path d="M0 0 C3.73639216 1.24546405 4.18756513 2.63404953 6 6 C5.01 6.495 5.01 6.495 4 7 C2.35 5.35 0.7 3.7 -1 2 C-0.67 1.34 -0.34 0.68 0 0 Z " fill="#1E7BC0" transform="translate(58,171)"/>
<path d="M0 0 C1.98 0.495 1.98 0.495 4 1 C3.67 2.32 3.34 3.64 3 5 C1.68 4.67 0.36 4.34 -1 4 C-0.67 2.68 -0.34 1.36 0 0 Z " fill="#ECF5F9" transform="translate(189,171)"/>
<path d="M0 0 C1.32 0 2.64 0 4 0 C4.33 1.32 4.66 2.64 5 4 C4.01 4.66 3.02 5.32 2 6 C0 3 0 3 0 0 Z " fill="#1471B6" transform="translate(212,70)"/>
<path d="M0 0 C2 0 2 0 4.625 2.375 C7 5 7 5 7 7 C3.74456771 6.65120368 2.98126893 5.97866739 0.75 3.4375 C-0.11625 2.2309375 -0.11625 2.2309375 -1 1 C-0.67 0.67 -0.34 0.34 0 0 Z " fill="#267AB9" transform="translate(48,46)"/>
<path d="M0 0 C0.66 0 1.32 0 2 0 C2.12375 0.78375 2.2475 1.5675 2.375 2.375 C2.79117993 5.14057822 2.79117993 5.14057822 5 7 C3.35 6.67 1.7 6.34 0 6 C-0.38218767 4.34385343 -0.71395102 2.67542976 -1 1 C-0.67 0.67 -0.34 0.34 0 0 Z " fill="#227AB9" transform="translate(102,21)"/>
<path d="M0 0 C-0.33 1.32 -0.66 2.64 -1 4 C-3.31 3.67 -5.62 3.34 -8 3 C-8 2.34 -8 1.68 -8 1 C-3.375 -1.125 -3.375 -1.125 0 0 Z " fill="#2C80BC" transform="translate(141,10)"/>
<path d="M0 0 C0.66 0 1.32 0 2 0 C1.67 2.97 1.34 5.94 1 9 C-0.32 7.35 -1.64 5.7 -3 4 C-2.34 3.34 -1.68 2.68 -1 2 C-0.67 1.34 -0.34 0.68 0 0 Z " fill="#E6F2F7" transform="translate(115,203)"/>
<path d="M0 0 C-0.33 1.32 -0.66 2.64 -1 4 C-2.65 4.33 -4.3 4.66 -6 5 C-6 4.01 -6 3.02 -6 2 C-3 0 -3 0 0 0 Z " fill="#1271B6" transform="translate(198,187)"/>
<path d="M0 0 C0.66 0 1.32 0 2 0 C2.103125 0.639375 2.20625 1.27875 2.3125 1.9375 C2.539375 2.618125 2.76625 3.29875 3 4 C3.99 4.33 4.98 4.66 6 5 C6 5.66 6 6.32 6 7 C1.125 6.125 1.125 6.125 0 5 C-0.04063832 3.33382885 -0.042721 1.66611905 0 0 Z " fill="#1673B7" transform="translate(37,169)"/>
<path d="M0 0 C1.9955516 3.99110319 2.19546065 5.69986566 2 10 C1.01 9.67 0.02 9.34 -1 9 C-0.67 6.03 -0.34 3.06 0 0 Z " fill="#0A6DB7" transform="translate(11,128)"/>
<path d="M0 0 C0.99 0.33 1.98 0.66 3 1 C3.33 2.98 3.66 4.96 4 7 C3.34 7 2.68 7 2 7 C1.67 6.34 1.34 5.68 1 5 C0.01 5.495 0.01 5.495 -1 6 C-0.67 4.02 -0.34 2.04 0 0 Z " fill="#2C83C0" transform="translate(12,84)"/>
<path d="M0 0 C0.33 0.99 0.66 1.98 1 3 C1.99 3.33 2.98 3.66 4 4 C3.34 5.65 2.68 7.3 2 9 C0.4375 7.3125 0.4375 7.3125 -1 5 C-0.6875 2.25 -0.6875 2.25 0 0 Z " fill="#2178B8" transform="translate(14,79)"/>
<path d="M0 0 C0.66 0.33 1.32 0.66 2 1 C1.34 2.65 0.68 4.3 0 6 C-0.66 6 -1.32 6 -2 6 C-2.33 6.66 -2.66 7.32 -3 8 C-3 6.35 -3 4.7 -3 3 C-2.01 2.67 -1.02 2.34 0 2 C0 1.34 0 0.68 0 0 Z " fill="#0C6DB4" transform="translate(46,77)"/>
<path d="M0 0 C0.66 0.99 1.32 1.98 2 3 C1.34 4.32 0.68 5.64 0 7 C-0.99 6.67 -1.98 6.34 -3 6 C-1.125 1.125 -1.125 1.125 0 0 Z " fill="#1570B6" transform="translate(36,43)"/>
<path d="M0 0 C1.32 1.32 2.64 2.64 4 4 C3.34 5.32 2.68 6.64 2 8 C0.68 6.68 -0.64 5.36 -2 4 C-1.34 3.67 -0.68 3.34 0 3 C0 2.01 0 1.02 0 0 Z " fill="#287DBB" transform="translate(196,41)"/>
<path d="M0 0 C2.31 0.33 4.62 0.66 7 1 C7 1.99 7 2.98 7 4 C5.35 4 3.7 4 2 4 C2 3.01 2 2.02 2 1 C1.34 0.67 0.68 0.34 0 0 Z " fill="#6DA7D2" transform="translate(205,19)"/>
<path d="M0 0 C0.99 0 1.98 0 3 0 C2.3125 1.9375 2.3125 1.9375 1 4 C-1.625 4.75 -1.625 4.75 -4 5 C-2.1875 2.5 -2.1875 2.5 0 0 Z " fill="#E8F2F6" transform="translate(57,186)"/>
<path d="M0 0 C0.99 0 1.98 0 3 0 C3 1.98 3 3.96 3 6 C2.01 6 1.02 6 0 6 C0 4.02 0 2.04 0 0 Z " fill="#0F71B7" transform="translate(12,141)"/>
<path d="M0 0 C0.99 0 1.98 0 3 0 C4.66670026 3.52948291 5.13583456 5.28272326 4 9 C3.3309224 7.68872739 2.66480194 6.3759455 2 5.0625 C1.62875 4.33160156 1.2575 3.60070313 0.875 2.84765625 C0 1 0 1 0 0 Z " fill="#EEF3F4" transform="translate(201,44)"/>
<path d="M0 0 C-0.66 1.32 -1.32 2.64 -2 4 C-3.32 3.67 -4.64 3.34 -6 3 C-6 2.34 -6 1.68 -6 1 C-4 0 -4 0 0 0 Z " fill="#1974B9" transform="translate(94,218)"/>
<path d="M0 0 C2.64 0 5.28 0 8 0 C6.68 1.32 5.36 2.64 4 4 C2.68 2.68 1.36 1.36 0 0 Z " fill="#227BBC" transform="translate(52,203)"/>
<path d="M0 0 C1.32 0.66 2.64 1.32 4 2 C3.01 2.495 3.01 2.495 2 3 C2 3.66 2 4.32 2 5 C0.68 4.67 -0.64 4.34 -2 4 C-1.34 2.68 -0.68 1.36 0 0 Z " fill="#438EC5" transform="translate(71,192)"/>
<path d="M0 0 C0.33 1.32 0.66 2.64 1 4 C-0.8125 4.625 -0.8125 4.625 -3 5 C-3.99 4.34 -4.98 3.68 -6 3 C-4.02 2.01 -2.04 1.02 0 0 Z " fill="#247CBC" transform="translate(156,183)"/>
<path d="M0 0 C1.32 1.32 2.64 2.64 4 4 C3.34 5.32 2.68 6.64 2 8 C0.4375 6.25 0.4375 6.25 -1 4 C-0.6875 1.75 -0.6875 1.75 0 0 Z " fill="#267EBD" transform="translate(190,142)"/>
<path d="M0 0 C0.99 0.33 1.98 0.66 3 1 C3 2.32 3 3.64 3 5 C1.68 5 0.36 5 -1 5 C-0.67 3.35 -0.34 1.7 0 0 Z " fill="#F1F8F9" transform="translate(105,21)"/>
<path d="M0 0 C4.75 0.75 4.75 0.75 7 3 C7 3.99 7 4.98 7 6 C6.34 6 5.68 6 5 6 C5 5.01 5 4.02 5 3 C3.35 2.67 1.7 2.34 0 2 C0 1.34 0 0.68 0 0 Z " fill="#F0F7F8" transform="translate(207,17)"/>
<path d="M0 0 C0 0.66 0 1.32 0 2 C0.99 2.33 1.98 2.66 3 3 C-3.625 2.25 -3.625 2.25 -7 0 C-3.86650268 -1.04449911 -3.01031744 -0.93423645 0 0 Z " fill="#2B7CBC" transform="translate(93,11)"/>
<path d="M0 0 C0.33 0.66 0.66 1.32 1 2 C1.99 2.33 2.98 2.66 4 3 C3.34 4.32 2.68 5.64 2 7 C2 6.01 2 5.02 2 4 C0.68 4.33 -0.64 4.66 -2 5 C-1.34 3.35 -0.68 1.7 0 0 Z " fill="#297DB8" transform="translate(186,151)"/>
<path d="M0 0 C1.98 0.495 1.98 0.495 4 1 C4 1.99 4 2.98 4 4 C3.01 4 2.02 4 1 4 C1 4.66 1 5.32 1 6 C0.34 6 -0.32 6 -1 6 C-0.67 4.02 -0.34 2.04 0 0 Z " fill="#237DBD" transform="translate(194,95)"/>
<path d="M0 0 C2 2 2 2 2.3125 4.4375 C2 7 2 7 -1 10 C-0.67 6.7 -0.34 3.4 0 0 Z " fill="#277BB8" transform="translate(10,92)"/>
<path d="M0 0 C1.98 0.495 1.98 0.495 4 1 C3.67 2.65 3.34 4.3 3 6 C2.34 5.01 1.68 4.02 1 3 C0.34 3 -0.32 3 -1 3 C-0.67 2.01 -0.34 1.02 0 0 Z " fill="#1F76B3" transform="translate(40,62)"/>
<path d="M0 0 C2.0625 0.4375 2.0625 0.4375 4 1 C2.25 4.875 2.25 4.875 0 6 C-0.38218767 4.34385343 -0.71395102 2.67542976 -1 1 C-0.67 0.67 -0.34 0.34 0 0 Z " fill="#106DB2" transform="translate(57,59)"/>
<path d="M0 0 C0.99 0.33 1.98 0.66 3 1 C3 1.66 3 2.32 3 3 C2.01 3 1.02 3 0 3 C0.66 3.66 1.32 4.32 2 5 C0.35 5.33 -1.3 5.66 -3 6 C-1.125 1.125 -1.125 1.125 0 0 Z " fill="#5196C6" transform="translate(145,26)"/>
<path d="M0 0 C2.475 0.99 2.475 0.99 5 2 C3.68 3.32 2.36 4.64 1 6 C0.34 5.34 -0.32 4.68 -1 4 C-0.625 1.875 -0.625 1.875 0 0 Z " fill="#287EBE" transform="translate(163,17)"/>
</svg>
